<?xml version="1.0" encoding="UTF-8" standalone="no"?>
<!DOCTYPE svg PUBLIC "-//W3C//DTD SVG 1.1//EN"
 "http://www.w3.org/Graphics/SVG/1.1/DTD/svg11.dtd">
<!-- Generated by graphviz version 2.38.0 (20140413.2041)
 -->
<!-- Title: controllers_diagram Pages: 1 -->
<svg width="908pt" height="804pt"
 viewBox="0.00 0.00 907.50 804.00" xmlns="http://www.w3.org/2000/svg" xmlns:xlink="http://www.w3.org/1999/xlink">
<g id="graph0" class="graph" transform="scale(1 1) rotate(0) translate(364 458)">
<title>controllers_diagram</title>
<polygon fill="none" stroke="none" points="-364,346 -364,-458 543.5,-458 543.5,346 -364,346"/>
<!-- _diagram_info -->
<g id="node1" class="node"><title>_diagram_info</title>
<text text-anchor="start" x="-208" y="152.4" font-family="Times,serif" font-size="13.00">Controllers diagram</text>
<text text-anchor="start" x="-208" y="166.4" font-family="Times,serif" font-size="13.00">Date: Jul 10 2019 &#45; 19:15</text>
<text text-anchor="start" x="-208" y="180.4" font-family="Times,serif" font-size="13.00">Migration version: 20190707121502</text>
<text text-anchor="start" x="-208" y="194.4" font-family="Times,serif" font-size="13.00">Generated by RailRoady 1.5.3</text>
<text text-anchor="start" x="-208" y="208.4" font-family="Times,serif" font-size="13.00">http://railroady.prestonlee.com</text>
</g>
<!-- HomeController -->
<g id="node2" class="node"><title>HomeController</title>
<path fill="none" stroke="black" d="M-348,215.5C-348,215.5 -266,215.5 -266,215.5 -260,215.5 -254,209.5 -254,203.5 -254,203.5 -254,134.5 -254,134.5 -254,128.5 -260,122.5 -266,122.5 -266,122.5 -348,122.5 -348,122.5 -354,122.5 -360,128.5 -360,134.5 -360,134.5 -360,203.5 -360,203.5 -360,209.5 -354,215.5 -348,215.5"/>
<text text-anchor="middle" x="-307" y="137.7" font-family="Times,serif" font-size="14.00">HomeController</text>
<polyline fill="none" stroke="black" points="-360,145.5 -254,145.5 "/>
<text text-anchor="start" x="-352" y="160.7" font-family="Times,serif" font-size="14.00">index</text>
<polyline fill="none" stroke="black" points="-360,168.5 -254,168.5 "/>
<polyline fill="none" stroke="black" points="-360,192.5 -254,192.5 "/>
<text text-anchor="start" x="-352" y="207.7" font-family="Times,serif" font-size="14.00">_layout</text>
</g>
<!-- UserOneGroupsController -->
<g id="node3" class="node"><title>UserOneGroupsController</title>
<path fill="none" stroke="black" d="M372,17.5C372,17.5 508,17.5 508,17.5 514,17.5 520,11.5 520,5.5 520,5.5 520,-63.5 520,-63.5 520,-69.5 514,-75.5 508,-75.5 508,-75.5 372,-75.5 372,-75.5 366,-75.5 360,-69.5 360,-63.5 360,-63.5 360,5.5 360,5.5 360,11.5 366,17.5 372,17.5"/>
<text text-anchor="middle" x="440" y="-60.3" font-family="Times,serif" font-size="14.00">UserOneGroupsController</text>
<polyline fill="none" stroke="black" points="360,-52.5 520,-52.5 "/>
<text text-anchor="start" x="368" y="-37.3" font-family="Times,serif" font-size="14.00">index</text>
<polyline fill="none" stroke="black" points="360,-29.5 520,-29.5 "/>
<polyline fill="none" stroke="black" points="360,-5.5 520,-5.5 "/>
<text text-anchor="start" x="368" y="9.7" font-family="Times,serif" font-size="14.00">_layout</text>
</g>
<!-- HoraDeFuncionamentosController -->
<g id="node4" class="node"><title>HoraDeFuncionamentosController</title>
<path fill="none" stroke="black" d="M-96.5,107.5C-96.5,107.5 84.5,107.5 84.5,107.5 90.5,107.5 96.5,101.5 96.5,95.5 96.5,95.5 96.5,-93.5 96.5,-93.5 96.5,-99.5 90.5,-105.5 84.5,-105.5 84.5,-105.5 -96.5,-105.5 -96.5,-105.5 -102.5,-105.5 -108.5,-99.5 -108.5,-93.5 -108.5,-93.5 -108.5,95.5 -108.5,95.5 -108.5,101.5 -102.5,107.5 -96.5,107.5"/>
<text text-anchor="middle" x="-6" y="-90.3" font-family="Times,serif" font-size="14.00">HoraDeFuncionamentosController</text>
<polyline fill="none" stroke="black" points="-108.5,-82.5 96.5,-82.5 "/>
<text text-anchor="start" x="-100.5" y="-67.3" font-family="Times,serif" font-size="14.00">create</text>
<text text-anchor="start" x="-100.5" y="-52.3" font-family="Times,serif" font-size="14.00">destroy</text>
<text text-anchor="start" x="-100.5" y="-37.3" font-family="Times,serif" font-size="14.00">edit</text>
<text text-anchor="start" x="-100.5" y="-22.3" font-family="Times,serif" font-size="14.00">index</text>
<text text-anchor="start" x="-100.5" y="-7.3" font-family="Times,serif" font-size="14.00">new</text>
<text text-anchor="start" x="-100.5" y="7.7" font-family="Times,serif" font-size="14.00">show</text>
<text text-anchor="start" x="-100.5" y="22.7" font-family="Times,serif" font-size="14.00">update</text>
<polyline fill="none" stroke="black" points="-108.5,30.5 96.5,30.5 "/>
<polyline fill="none" stroke="black" points="-108.5,54.5 96.5,54.5 "/>
<text text-anchor="start" x="-100.5" y="69.7" font-family="Times,serif" font-size="14.00">_layout</text>
<text text-anchor="start" x="-100.5" y="84.7" font-family="Times,serif" font-size="14.00">hora_de_funcionamento_params</text>
<text text-anchor="start" x="-100.5" y="99.7" font-family="Times,serif" font-size="14.00">set_hora_de_funcionamento</text>
</g>
<!-- UsersController -->
<g id="node5" class="node"><title>UsersController</title>
<path fill="none" stroke="black" d="M318.5,-144.5C318.5,-144.5 397.5,-144.5 397.5,-144.5 403.5,-144.5 409.5,-150.5 409.5,-156.5 409.5,-156.5 409.5,-345.5 409.5,-345.5 409.5,-351.5 403.5,-357.5 397.5,-357.5 397.5,-357.5 318.5,-357.5 318.5,-357.5 312.5,-357.5 306.5,-351.5 306.5,-345.5 306.5,-345.5 306.5,-156.5 306.5,-156.5 306.5,-150.5 312.5,-144.5 318.5,-144.5"/>
<text text-anchor="middle" x="358" y="-342.3" font-family="Times,serif" font-size="14.00">UsersController</text>
<polyline fill="none" stroke="black" points="306.5,-334.5 409.5,-334.5 "/>
<text text-anchor="start" x="314.5" y="-319.3" font-family="Times,serif" font-size="14.00">create</text>
<text text-anchor="start" x="314.5" y="-304.3" font-family="Times,serif" font-size="14.00">destroy</text>
<text text-anchor="start" x="314.5" y="-289.3" font-family="Times,serif" font-size="14.00">edit</text>
<text text-anchor="start" x="314.5" y="-274.3" font-family="Times,serif" font-size="14.00">index</text>
<text text-anchor="start" x="314.5" y="-259.3" font-family="Times,serif" font-size="14.00">new</text>
<text text-anchor="start" x="314.5" y="-244.3" font-family="Times,serif" font-size="14.00">show</text>
<text text-anchor="start" x="314.5" y="-229.3" font-family="Times,serif" font-size="14.00">update</text>
<polyline fill="none" stroke="black" points="306.5,-221.5 409.5,-221.5 "/>
<polyline fill="none" stroke="black" points="306.5,-197.5 409.5,-197.5 "/>
<text text-anchor="start" x="314.5" y="-182.3" font-family="Times,serif" font-size="14.00">_layout</text>
<text text-anchor="start" x="314.5" y="-167.3" font-family="Times,serif" font-size="14.00">set_user</text>
<text text-anchor="start" x="314.5" y="-152.3" font-family="Times,serif" font-size="14.00">user_params</text>
</g>
<!-- SatisfactionsLunchController -->
<g id="node6" class="node"><title>SatisfactionsLunchController</title>
<path fill="none" stroke="black" d="M282,269.5C282,269.5 434,269.5 434,269.5 440,269.5 446,263.5 446,257.5 446,257.5 446,188.5 446,188.5 446,182.5 440,176.5 434,176.5 434,176.5 282,176.5 282,176.5 276,176.5 270,182.5 270,188.5 270,188.5 270,257.5 270,257.5 270,263.5 276,269.5 282,269.5"/>
<text text-anchor="middle" x="358" y="191.7" font-family="Times,serif" font-size="14.00">SatisfactionsLunchController</text>
<polyline fill="none" stroke="black" points="270,199.5 446,199.5 "/>
<text text-anchor="start" x="278" y="214.7" font-family="Times,serif" font-size="14.00">index</text>
<polyline fill="none" stroke="black" points="270,222.5 446,222.5 "/>
<polyline fill="none" stroke="black" points="270,246.5 446,246.5 "/>
<text text-anchor="start" x="278" y="261.7" font-family="Times,serif" font-size="14.00">_layout</text>
</g>
<!-- SatisfactionsBreakfastController -->
<g id="node7" class="node"><title>SatisfactionsBreakfastController</title>
<path fill="none" stroke="black" d="M48.5,251.5C48.5,251.5 217.5,251.5 217.5,251.5 223.5,251.5 229.5,245.5 229.5,239.5 229.5,239.5 229.5,170.5 229.5,170.5 229.5,164.5 223.5,158.5 217.5,158.5 217.5,158.5 48.5,158.5 48.5,158.5 42.5,158.5 36.5,164.5 36.5,170.5 36.5,170.5 36.5,239.5 36.5,239.5 36.5,245.5 42.5,251.5 48.5,251.5"/>
<text text-anchor="middle" x="133" y="173.7" font-family="Times,serif" font-size="14.00">SatisfactionsBreakfastController</text>
<polyline fill="none" stroke="black" points="36.5,181.5 229.5,181.5 "/>
<text text-anchor="start" x="44.5" y="196.7" font-family="Times,serif" font-size="14.00">index</text>
<polyline fill="none" stroke="black" points="36.5,204.5 229.5,204.5 "/>
<polyline fill="none" stroke="black" points="36.5,228.5 229.5,228.5 "/>
<text text-anchor="start" x="44.5" y="243.7" font-family="Times,serif" font-size="14.00">_layout</text>
</g>
<!-- ApplicationController -->
<g id="node8" class="node"><title>ApplicationController</title>
<path fill="none" stroke="black" d="M-330,-217C-330,-217 -214,-217 -214,-217 -208,-217 -202,-223 -202,-229 -202,-229 -202,-313 -202,-313 -202,-319 -208,-325 -214,-325 -214,-325 -330,-325 -330,-325 -336,-325 -342,-319 -342,-313 -342,-313 -342,-229 -342,-229 -342,-223 -336,-217 -330,-217"/>
<text text-anchor="middle" x="-272" y="-309.8" font-family="Times,serif" font-size="14.00">ApplicationController</text>
<polyline fill="none" stroke="black" points="-342,-302 -202,-302 "/>
<text text-anchor="start" x="-334" y="-286.8" font-family="Times,serif" font-size="14.00">after_sign_in_path_for</text>
<text text-anchor="start" x="-334" y="-271.8" font-family="Times,serif" font-size="14.00">after_update_path_for</text>
<polyline fill="none" stroke="black" points="-342,-264 -202,-264 "/>
<polyline fill="none" stroke="black" points="-342,-240 -202,-240 "/>
<text text-anchor="start" x="-334" y="-224.8" font-family="Times,serif" font-size="14.00">_layout</text>
</g>
<!-- DinnersController -->
<g id="node9" class="node"><title>DinnersController</title>
<path fill="none" stroke="black" d="M-150.5,-162.5C-150.5,-162.5 -59.5,-162.5 -59.5,-162.5 -53.5,-162.5 -47.5,-168.5 -47.5,-174.5 -47.5,-174.5 -47.5,-363.5 -47.5,-363.5 -47.5,-369.5 -53.5,-375.5 -59.5,-375.5 -59.5,-375.5 -150.5,-375.5 -150.5,-375.5 -156.5,-375.5 -162.5,-369.5 -162.5,-363.5 -162.5,-363.5 -162.5,-174.5 -162.5,-174.5 -162.5,-168.5 -156.5,-162.5 -150.5,-162.5"/>
<text text-anchor="middle" x="-105" y="-360.3" font-family="Times,serif" font-size="14.00">DinnersController</text>
<polyline fill="none" stroke="black" points="-162.5,-352.5 -47.5,-352.5 "/>
<text text-anchor="start" x="-154.5" y="-337.3" font-family="Times,serif" font-size="14.00">create</text>
<text text-anchor="start" x="-154.5" y="-322.3" font-family="Times,serif" font-size="14.00">destroy</text>
<text text-anchor="start" x="-154.5" y="-307.3" font-family="Times,serif" font-size="14.00">edit</text>
<text text-anchor="start" x="-154.5" y="-292.3" font-family="Times,serif" font-size="14.00">index</text>
<text text-anchor="start" x="-154.5" y="-277.3" font-family="Times,serif" font-size="14.00">new</text>
<text text-anchor="start" x="-154.5" y="-262.3" font-family="Times,serif" font-size="14.00">show</text>
<text text-anchor="start" x="-154.5" y="-247.3" font-family="Times,serif" font-size="14.00">update</text>
<polyline fill="none" stroke="black" points="-162.5,-239.5 -47.5,-239.5 "/>
<polyline fill="none" stroke="black" points="-162.5,-215.5 -47.5,-215.5 "/>
<text text-anchor="start" x="-154.5" y="-200.3" font-family="Times,serif" font-size="14.00">_layout</text>
<text text-anchor="start" x="-154.5" y="-185.3" font-family="Times,serif" font-size="14.00">dinner_params</text>
<text text-anchor="start" x="-154.5" y="-170.3" font-family="Times,serif" font-size="14.00">set_dinner</text>
</g>
<!-- DashboardController -->
<g id="node10" class="node"><title>DashboardController</title>
<path fill="none" stroke="black" d="M-131.5,341.5C-131.5,341.5 -24.5,341.5 -24.5,341.5 -18.5,341.5 -12.5,335.5 -12.5,329.5 -12.5,329.5 -12.5,260.5 -12.5,260.5 -12.5,254.5 -18.5,248.5 -24.5,248.5 -24.5,248.5 -131.5,248.5 -131.5,248.5 -137.5,248.5 -143.5,254.5 -143.5,260.5 -143.5,260.5 -143.5,329.5 -143.5,329.5 -143.5,335.5 -137.5,341.5 -131.5,341.5"/>
<text text-anchor="middle" x="-78" y="263.7" font-family="Times,serif" font-size="14.00">DashboardController</text>
<polyline fill="none" stroke="black" points="-143.5,271.5 -12.5,271.5 "/>
<text text-anchor="start" x="-135.5" y="286.7" font-family="Times,serif" font-size="14.00">index</text>
<polyline fill="none" stroke="black" points="-143.5,294.5 -12.5,294.5 "/>
<polyline fill="none" stroke="black" points="-143.5,318.5 -12.5,318.5 "/>
<text text-anchor="start" x="-135.5" y="333.7" font-family="Times,serif" font-size="14.00">_layout</text>
</g>
<!-- BreakfastsController -->
<g id="node11" class="node"><title>BreakfastsController</title>
<path fill="none" stroke="black" d="M-5.5,-144.5C-5.5,-144.5 99.5,-144.5 99.5,-144.5 105.5,-144.5 111.5,-150.5 111.5,-156.5 111.5,-156.5 111.5,-345.5 111.5,-345.5 111.5,-351.5 105.5,-357.5 99.5,-357.5 99.5,-357.5 -5.5,-357.5 -5.5,-357.5 -11.5,-357.5 -17.5,-351.5 -17.5,-345.5 -17.5,-345.5 -17.5,-156.5 -17.5,-156.5 -17.5,-150.5 -11.5,-144.5 -5.5,-144.5"/>
<text text-anchor="middle" x="47" y="-342.3" font-family="Times,serif" font-size="14.00">BreakfastsController</text>
<polyline fill="none" stroke="black" points="-17.5,-334.5 111.5,-334.5 "/>
<text text-anchor="start" x="-9.5" y="-319.3" font-family="Times,serif" font-size="14.00">create</text>
<text text-anchor="start" x="-9.5" y="-304.3" font-family="Times,serif" font-size="14.00">destroy</text>
<text text-anchor="start" x="-9.5" y="-289.3" font-family="Times,serif" font-size="14.00">edit</text>
<text text-anchor="start" x="-9.5" y="-274.3" font-family="Times,serif" font-size="14.00">index</text>
<text text-anchor="start" x="-9.5" y="-259.3" font-family="Times,serif" font-size="14.00">new</text>
<text text-anchor="start" x="-9.5" y="-244.3" font-family="Times,serif" font-size="14.00">show</text>
<text text-anchor="start" x="-9.5" y="-229.3" font-family="Times,serif" font-size="14.00">update</text>
<polyline fill="none" stroke="black" points="-17.5,-221.5 111.5,-221.5 "/>
<polyline fill="none" stroke="black" points="-17.5,-197.5 111.5,-197.5 "/>
<text text-anchor="start" x="-9.5" y="-182.3" font-family="Times,serif" font-size="14.00">_layout</text>
<text text-anchor="start" x="-9.5" y="-167.3" font-family="Times,serif" font-size="14.00">breakfast_params</text>
<text text-anchor="start" x="-9.5" y="-152.3" font-family="Times,serif" font-size="14.00">set_breakfast</text>
</g>
<!-- UserThreeGroupsController -->
<g id="node12" class="node"><title>UserThreeGroupsController</title>
<path fill="none" stroke="black" d="M-330.5,341.5C-330.5,341.5 -185.5,341.5 -185.5,341.5 -179.5,341.5 -173.5,335.5 -173.5,329.5 -173.5,329.5 -173.5,260.5 -173.5,260.5 -173.5,254.5 -179.5,248.5 -185.5,248.5 -185.5,248.5 -330.5,248.5 -330.5,248.5 -336.5,248.5 -342.5,254.5 -342.5,260.5 -342.5,260.5 -342.5,329.5 -342.5,329.5 -342.5,335.5 -336.5,341.5 -330.5,341.5"/>
<text text-anchor="middle" x="-258" y="263.7" font-family="Times,serif" font-size="14.00">UserThreeGroupsController</text>
<polyline fill="none" stroke="black" points="-342.5,271.5 -173.5,271.5 "/>
<text text-anchor="start" x="-334.5" y="286.7" font-family="Times,serif" font-size="14.00">index</text>
<polyline fill="none" stroke="black" points="-342.5,294.5 -173.5,294.5 "/>
<polyline fill="none" stroke="black" points="-342.5,318.5 -173.5,318.5 "/>
<text text-anchor="start" x="-334.5" y="333.7" font-family="Times,serif" font-size="14.00">_layout</text>
</g>
<!-- CustomerSatisfactionsController -->
<g id="node13" class="node"><title>CustomerSatisfactionsController</title>
<path fill="none" stroke="black" d="M138,125C138,125 308,125 308,125 314,125 320,119 320,113 320,113 320,-91 320,-91 320,-97 314,-103 308,-103 308,-103 138,-103 138,-103 132,-103 126,-97 126,-91 126,-91 126,113 126,113 126,119 132,125 138,125"/>
<text text-anchor="middle" x="223" y="-87.8" font-family="Times,serif" font-size="14.00">CustomerSatisfactionsController</text>
<polyline fill="none" stroke="black" points="126,-80 320,-80 "/>
<text text-anchor="start" x="134" y="-64.8" font-family="Times,serif" font-size="14.00">charts</text>
<text text-anchor="start" x="134" y="-49.8" font-family="Times,serif" font-size="14.00">create</text>
<text text-anchor="start" x="134" y="-34.8" font-family="Times,serif" font-size="14.00">destroy</text>
<text text-anchor="start" x="134" y="-19.8" font-family="Times,serif" font-size="14.00">edit</text>
<text text-anchor="start" x="134" y="-4.8" font-family="Times,serif" font-size="14.00">index</text>
<text text-anchor="start" x="134" y="10.2" font-family="Times,serif" font-size="14.00">new</text>
<text text-anchor="start" x="134" y="25.2" font-family="Times,serif" font-size="14.00">show</text>
<text text-anchor="start" x="134" y="40.2" font-family="Times,serif" font-size="14.00">update</text>
<polyline fill="none" stroke="black" points="126,48 320,48 "/>
<polyline fill="none" stroke="black" points="126,72 320,72 "/>
<text text-anchor="start" x="134" y="87.2" font-family="Times,serif" font-size="14.00">_layout</text>
<text text-anchor="start" x="134" y="102.2" font-family="Times,serif" font-size="14.00">customer_satisfaction_params</text>
<text text-anchor="start" x="134" y="117.2" font-family="Times,serif" font-size="14.00">set_customer_satisfaction</text>
</g>
<!-- LunchesController -->
<g id="node14" class="node"><title>LunchesController</title>
<path fill="none" stroke="black" d="M-258,89.5C-258,89.5 -164,89.5 -164,89.5 -158,89.5 -152,83.5 -152,77.5 -152,77.5 -152,-111.5 -152,-111.5 -152,-117.5 -158,-123.5 -164,-123.5 -164,-123.5 -258,-123.5 -258,-123.5 -264,-123.5 -270,-117.5 -270,-111.5 -270,-111.5 -270,77.5 -270,77.5 -270,83.5 -264,89.5 -258,89.5"/>
<text text-anchor="middle" x="-211" y="-108.3" font-family="Times,serif" font-size="14.00">LunchesController</text>
<polyline fill="none" stroke="black" points="-270,-100.5 -152,-100.5 "/>
<text text-anchor="start" x="-262" y="-85.3" font-family="Times,serif" font-size="14.00">create</text>
<text text-anchor="start" x="-262" y="-70.3" font-family="Times,serif" font-size="14.00">destroy</text>
<text text-anchor="start" x="-262" y="-55.3" font-family="Times,serif" font-size="14.00">edit</text>
<text text-anchor="start" x="-262" y="-40.3" font-family="Times,serif" font-size="14.00">index</text>
<text text-anchor="start" x="-262" y="-25.3" font-family="Times,serif" font-size="14.00">new</text>
<text text-anchor="start" x="-262" y="-10.3" font-family="Times,serif" font-size="14.00">show</text>
<text text-anchor="start" x="-262" y="4.7" font-family="Times,serif" font-size="14.00">update</text>
<polyline fill="none" stroke="black" points="-270,12.5 -152,12.5 "/>
<polyline fill="none" stroke="black" points="-270,36.5 -152,36.5 "/>
<text text-anchor="start" x="-262" y="51.7" font-family="Times,serif" font-size="14.00">_layout</text>
<text text-anchor="start" x="-262" y="66.7" font-family="Times,serif" font-size="14.00">lunch_params</text>
<text text-anchor="start" x="-262" y="81.7" font-family="Times,serif" font-size="14.00">set_lunch</text>
</g>
<!-- UserTwoGroupsController -->
<g id="node15" class="node"><title>UserTwoGroupsController</title>
<path fill="none" stroke="black" d="M-348,-360.5C-348,-360.5 -210,-360.5 -210,-360.5 -204,-360.5 -198,-366.5 -198,-372.5 -198,-372.5 -198,-441.5 -198,-441.5 -198,-447.5 -204,-453.5 -210,-453.5 -210,-453.5 -348,-453.5 -348,-453.5 -354,-453.5 -360,-447.5 -360,-441.5 -360,-441.5 -360,-372.5 -360,-372.5 -360,-366.5 -354,-360.5 -348,-360.5"/>
<text text-anchor="middle" x="-279" y="-438.3" font-family="Times,serif" font-size="14.00">UserTwoGroupsController</text>
<polyline fill="none" stroke="black" points="-360,-430.5 -198,-430.5 "/>
<text text-anchor="start" x="-352" y="-415.3" font-family="Times,serif" font-size="14.00">index</text>
<polyline fill="none" stroke="black" points="-360,-407.5 -198,-407.5 "/>
<polyline fill="none" stroke="black" points="-360,-383.5 -198,-383.5 "/>
<text text-anchor="start" x="-352" y="-368.3" font-family="Times,serif" font-size="14.00">_layout</text>
</g>
<!-- SatisfactionsDinnerController -->
<g id="node16" class="node"><title>SatisfactionsDinnerController</title>
<path fill="none" stroke="black" d="M372.5,143.5C372.5,143.5 527.5,143.5 527.5,143.5 533.5,143.5 539.5,137.5 539.5,131.5 539.5,131.5 539.5,62.5 539.5,62.5 539.5,56.5 533.5,50.5 527.5,50.5 527.5,50.5 372.5,50.5 372.5,50.5 366.5,50.5 360.5,56.5 360.5,62.5 360.5,62.5 360.5,131.5 360.5,131.5 360.5,137.5 366.5,143.5 372.5,143.5"/>
<text text-anchor="middle" x="450" y="65.7" font-family="Times,serif" font-size="14.00">SatisfactionsDinnerController</text>
<polyline fill="none" stroke="black" points="360.5,73.5 539.5,73.5 "/>
<text text-anchor="start" x="368.5" y="88.7" font-family="Times,serif" font-size="14.00">index</text>
<polyline fill="none" stroke="black" points="360.5,96.5 539.5,96.5 "/>
<polyline fill="none" stroke="black" points="360.5,120.5 539.5,120.5 "/>
<text text-anchor="start" x="368.5" y="135.7" font-family="Times,serif" font-size="14.00">_layout</text>
</g>
<!-- MenusController -->
<g id="node17" class="node"><title>MenusController</title>
<path fill="none" stroke="black" d="M156,-145C156,-145 266,-145 266,-145 272,-145 278,-151 278,-157 278,-157 278,-421 278,-421 278,-427 272,-433 266,-433 266,-433 156,-433 156,-433 150,-433 144,-427 144,-421 144,-421 144,-157 144,-157 144,-151 150,-145 156,-145"/>
<text text-anchor="middle" x="211" y="-417.8" font-family="Times,serif" font-size="14.00">MenusController</text>
<polyline fill="none" stroke="black" points="144,-410 278,-410 "/>
<text text-anchor="start" x="152" y="-394.8" font-family="Times,serif" font-size="14.00">create</text>
<text text-anchor="start" x="152" y="-379.8" font-family="Times,serif" font-size="14.00">destroy</text>
<text text-anchor="start" x="152" y="-364.8" font-family="Times,serif" font-size="14.00">edit</text>
<text text-anchor="start" x="152" y="-349.8" font-family="Times,serif" font-size="14.00">import</text>
<text text-anchor="start" x="152" y="-334.8" font-family="Times,serif" font-size="14.00">index</text>
<text text-anchor="start" x="152" y="-319.8" font-family="Times,serif" font-size="14.00">new</text>
<text text-anchor="start" x="152" y="-304.8" font-family="Times,serif" font-size="14.00">show</text>
<text text-anchor="start" x="152" y="-289.8" font-family="Times,serif" font-size="14.00">update</text>
<polyline fill="none" stroke="black" points="144,-282 278,-282 "/>
<polyline fill="none" stroke="black" points="144,-258 278,-258 "/>
<text text-anchor="start" x="152" y="-242.8" font-family="Times,serif" font-size="14.00">_layout</text>
<text text-anchor="start" x="152" y="-227.8" font-family="Times,serif" font-size="14.00">load_imported_menu</text>
<text text-anchor="start" x="152" y="-212.8" font-family="Times,serif" font-size="14.00">menu_params</text>
<text text-anchor="start" x="152" y="-197.8" font-family="Times,serif" font-size="14.00">open_spreadsheet</text>
<text text-anchor="start" x="152" y="-182.8" font-family="Times,serif" font-size="14.00">route_to</text>
<text text-anchor="start" x="152" y="-167.8" font-family="Times,serif" font-size="14.00">set_menu</text>
<text text-anchor="start" x="152" y="-152.8" font-family="Times,serif" font-size="14.00">this_week_menus</text>
</g>
</g>
</svg>
