<?xml version="1.0" encoding="UTF-8" standalone="no"?>
<!DOCTYPE svg PUBLIC "-//W3C//DTD SVG 1.1//EN"
 "http://www.w3.org/Graphics/SVG/1.1/DTD/svg11.dtd">
<!-- Generated by graphviz version 2.38.0 (20140413.2041)
 -->
<!-- Title: controllers_diagram Pages: 1 -->
<svg width="857pt" height="816pt"
 viewBox="0.00 0.00 856.50 816.00" xmlns="http://www.w3.org/2000/svg" xmlns:xlink="http://www.w3.org/1999/xlink">
<g id="graph0" class="graph" transform="scale(1 1) rotate(0) translate(344 455)">
<title>controllers_diagram</title>
<polygon fill="none" stroke="none" points="-344,361 -344,-455 512.5,-455 512.5,361 -344,361"/>
<!-- _diagram_info -->
<g id="node1" class="node"><title>_diagram_info</title>
<text text-anchor="start" x="8" y="174.4" font-family="Times,serif" font-size="13.00">Controllers diagram</text>
<text text-anchor="start" x="8" y="188.4" font-family="Times,serif" font-size="13.00">Date: Jul 10 2019 &#45; 16:12</text>
<text text-anchor="start" x="8" y="202.4" font-family="Times,serif" font-size="13.00">Migration version: 20190530182110</text>
<text text-anchor="start" x="8" y="216.4" font-family="Times,serif" font-size="13.00">Generated by RailRoady 1.5.3</text>
<text text-anchor="start" x="8" y="230.4" font-family="Times,serif" font-size="13.00">http://railroady.prestonlee.com</text>
</g>
<!-- HomeController -->
<g id="node2" class="node"><title>HomeController</title>
<path fill="none" stroke="black" d="M-328,-340.5C-328,-340.5 -246,-340.5 -246,-340.5 -240,-340.5 -234,-346.5 -234,-352.5 -234,-352.5 -234,-421.5 -234,-421.5 -234,-427.5 -240,-433.5 -246,-433.5 -246,-433.5 -328,-433.5 -328,-433.5 -334,-433.5 -340,-427.5 -340,-421.5 -340,-421.5 -340,-352.5 -340,-352.5 -340,-346.5 -334,-340.5 -328,-340.5"/>
<text text-anchor="middle" x="-287" y="-418.3" font-family="Times,serif" font-size="14.00">HomeController</text>
<polyline fill="none" stroke="black" points="-340,-410.5 -234,-410.5 "/>
<text text-anchor="start" x="-332" y="-395.3" font-family="Times,serif" font-size="14.00">index</text>
<polyline fill="none" stroke="black" points="-340,-387.5 -234,-387.5 "/>
<polyline fill="none" stroke="black" points="-340,-363.5 -234,-363.5 "/>
<text text-anchor="start" x="-332" y="-348.3" font-family="Times,serif" font-size="14.00">_layout</text>
</g>
<!-- UserOneGroupsController -->
<g id="node3" class="node"><title>UserOneGroupsController</title>
<path fill="none" stroke="black" d="M301,16.5C301,16.5 437,16.5 437,16.5 443,16.5 449,10.5 449,4.5 449,4.5 449,-64.5 449,-64.5 449,-70.5 443,-76.5 437,-76.5 437,-76.5 301,-76.5 301,-76.5 295,-76.5 289,-70.5 289,-64.5 289,-64.5 289,4.5 289,4.5 289,10.5 295,16.5 301,16.5"/>
<text text-anchor="middle" x="369" y="-61.3" font-family="Times,serif" font-size="14.00">UserOneGroupsController</text>
<polyline fill="none" stroke="black" points="289,-53.5 449,-53.5 "/>
<text text-anchor="start" x="297" y="-38.3" font-family="Times,serif" font-size="14.00">index</text>
<polyline fill="none" stroke="black" points="289,-30.5 449,-30.5 "/>
<polyline fill="none" stroke="black" points="289,-6.5 449,-6.5 "/>
<text text-anchor="start" x="297" y="8.7" font-family="Times,serif" font-size="14.00">_layout</text>
</g>
<!-- UsersController -->
<g id="node4" class="node"><title>UsersController</title>
<path fill="none" stroke="black" d="M-225.5,50.5C-225.5,50.5 -146.5,50.5 -146.5,50.5 -140.5,50.5 -134.5,44.5 -134.5,38.5 -134.5,38.5 -134.5,-150.5 -134.5,-150.5 -134.5,-156.5 -140.5,-162.5 -146.5,-162.5 -146.5,-162.5 -225.5,-162.5 -225.5,-162.5 -231.5,-162.5 -237.5,-156.5 -237.5,-150.5 -237.5,-150.5 -237.5,38.5 -237.5,38.5 -237.5,44.5 -231.5,50.5 -225.5,50.5"/>
<text text-anchor="middle" x="-186" y="-147.3" font-family="Times,serif" font-size="14.00">UsersController</text>
<polyline fill="none" stroke="black" points="-237.5,-139.5 -134.5,-139.5 "/>
<text text-anchor="start" x="-229.5" y="-124.3" font-family="Times,serif" font-size="14.00">create</text>
<text text-anchor="start" x="-229.5" y="-109.3" font-family="Times,serif" font-size="14.00">destroy</text>
<text text-anchor="start" x="-229.5" y="-94.3" font-family="Times,serif" font-size="14.00">edit</text>
<text text-anchor="start" x="-229.5" y="-79.3" font-family="Times,serif" font-size="14.00">index</text>
<text text-anchor="start" x="-229.5" y="-64.3" font-family="Times,serif" font-size="14.00">new</text>
<text text-anchor="start" x="-229.5" y="-49.3" font-family="Times,serif" font-size="14.00">show</text>
<text text-anchor="start" x="-229.5" y="-34.3" font-family="Times,serif" font-size="14.00">update</text>
<polyline fill="none" stroke="black" points="-237.5,-26.5 -134.5,-26.5 "/>
<polyline fill="none" stroke="black" points="-237.5,-2.5 -134.5,-2.5 "/>
<text text-anchor="start" x="-229.5" y="12.7" font-family="Times,serif" font-size="14.00">_layout</text>
<text text-anchor="start" x="-229.5" y="27.7" font-family="Times,serif" font-size="14.00">set_user</text>
<text text-anchor="start" x="-229.5" y="42.7" font-family="Times,serif" font-size="14.00">user_params</text>
</g>
<!-- SatisfactionsLunchController -->
<g id="node5" class="node"><title>SatisfactionsLunchController</title>
<path fill="none" stroke="black" d="M267,254.5C267,254.5 419,254.5 419,254.5 425,254.5 431,248.5 431,242.5 431,242.5 431,173.5 431,173.5 431,167.5 425,161.5 419,161.5 419,161.5 267,161.5 267,161.5 261,161.5 255,167.5 255,173.5 255,173.5 255,242.5 255,242.5 255,248.5 261,254.5 267,254.5"/>
<text text-anchor="middle" x="343" y="176.7" font-family="Times,serif" font-size="14.00">SatisfactionsLunchController</text>
<polyline fill="none" stroke="black" points="255,184.5 431,184.5 "/>
<text text-anchor="start" x="263" y="199.7" font-family="Times,serif" font-size="14.00">index</text>
<polyline fill="none" stroke="black" points="255,207.5 431,207.5 "/>
<polyline fill="none" stroke="black" points="255,231.5 431,231.5 "/>
<text text-anchor="start" x="263" y="246.7" font-family="Times,serif" font-size="14.00">_layout</text>
</g>
<!-- SatisfactionsBreakfastController -->
<g id="node6" class="node"><title>SatisfactionsBreakfastController</title>
<path fill="none" stroke="black" d="M-225.5,237.5C-225.5,237.5 -56.5,237.5 -56.5,237.5 -50.5,237.5 -44.5,231.5 -44.5,225.5 -44.5,225.5 -44.5,156.5 -44.5,156.5 -44.5,150.5 -50.5,144.5 -56.5,144.5 -56.5,144.5 -225.5,144.5 -225.5,144.5 -231.5,144.5 -237.5,150.5 -237.5,156.5 -237.5,156.5 -237.5,225.5 -237.5,225.5 -237.5,231.5 -231.5,237.5 -225.5,237.5"/>
<text text-anchor="middle" x="-141" y="159.7" font-family="Times,serif" font-size="14.00">SatisfactionsBreakfastController</text>
<polyline fill="none" stroke="black" points="-237.5,167.5 -44.5,167.5 "/>
<text text-anchor="start" x="-229.5" y="182.7" font-family="Times,serif" font-size="14.00">index</text>
<polyline fill="none" stroke="black" points="-237.5,190.5 -44.5,190.5 "/>
<polyline fill="none" stroke="black" points="-237.5,214.5 -44.5,214.5 "/>
<text text-anchor="start" x="-229.5" y="229.7" font-family="Times,serif" font-size="14.00">_layout</text>
</g>
<!-- ApplicationController -->
<g id="node7" class="node"><title>ApplicationController</title>
<path fill="none" stroke="black" d="M352,-103C352,-103 468,-103 468,-103 474,-103 480,-109 480,-115 480,-115 480,-199 480,-199 480,-205 474,-211 468,-211 468,-211 352,-211 352,-211 346,-211 340,-205 340,-199 340,-199 340,-115 340,-115 340,-109 346,-103 352,-103"/>
<text text-anchor="middle" x="410" y="-195.8" font-family="Times,serif" font-size="14.00">ApplicationController</text>
<polyline fill="none" stroke="black" points="340,-188 480,-188 "/>
<text text-anchor="start" x="348" y="-172.8" font-family="Times,serif" font-size="14.00">after_sign_in_path_for</text>
<text text-anchor="start" x="348" y="-157.8" font-family="Times,serif" font-size="14.00">after_update_path_for</text>
<polyline fill="none" stroke="black" points="340,-150 480,-150 "/>
<polyline fill="none" stroke="black" points="340,-126 480,-126 "/>
<text text-anchor="start" x="348" y="-110.8" font-family="Times,serif" font-size="14.00">_layout</text>
</g>
<!-- DinnersController -->
<g id="node8" class="node"><title>DinnersController</title>
<path fill="none" stroke="black" d="M198.5,-187.5C198.5,-187.5 289.5,-187.5 289.5,-187.5 295.5,-187.5 301.5,-193.5 301.5,-199.5 301.5,-199.5 301.5,-388.5 301.5,-388.5 301.5,-394.5 295.5,-400.5 289.5,-400.5 289.5,-400.5 198.5,-400.5 198.5,-400.5 192.5,-400.5 186.5,-394.5 186.5,-388.5 186.5,-388.5 186.5,-199.5 186.5,-199.5 186.5,-193.5 192.5,-187.5 198.5,-187.5"/>
<text text-anchor="middle" x="244" y="-385.3" font-family="Times,serif" font-size="14.00">DinnersController</text>
<polyline fill="none" stroke="black" points="186.5,-377.5 301.5,-377.5 "/>
<text text-anchor="start" x="194.5" y="-362.3" font-family="Times,serif" font-size="14.00">create</text>
<text text-anchor="start" x="194.5" y="-347.3" font-family="Times,serif" font-size="14.00">destroy</text>
<text text-anchor="start" x="194.5" y="-332.3" font-family="Times,serif" font-size="14.00">edit</text>
<text text-anchor="start" x="194.5" y="-317.3" font-family="Times,serif" font-size="14.00">index</text>
<text text-anchor="start" x="194.5" y="-302.3" font-family="Times,serif" font-size="14.00">new</text>
<text text-anchor="start" x="194.5" y="-287.3" font-family="Times,serif" font-size="14.00">show</text>
<text text-anchor="start" x="194.5" y="-272.3" font-family="Times,serif" font-size="14.00">update</text>
<polyline fill="none" stroke="black" points="186.5,-264.5 301.5,-264.5 "/>
<polyline fill="none" stroke="black" points="186.5,-240.5 301.5,-240.5 "/>
<text text-anchor="start" x="194.5" y="-225.3" font-family="Times,serif" font-size="14.00">_layout</text>
<text text-anchor="start" x="194.5" y="-210.3" font-family="Times,serif" font-size="14.00">dinner_params</text>
<text text-anchor="start" x="194.5" y="-195.3" font-family="Times,serif" font-size="14.00">set_dinner</text>
</g>
<!-- DashboardController -->
<g id="node9" class="node"><title>DashboardController</title>
<path fill="none" stroke="black" d="M369.5,-357.5C369.5,-357.5 476.5,-357.5 476.5,-357.5 482.5,-357.5 488.5,-363.5 488.5,-369.5 488.5,-369.5 488.5,-438.5 488.5,-438.5 488.5,-444.5 482.5,-450.5 476.5,-450.5 476.5,-450.5 369.5,-450.5 369.5,-450.5 363.5,-450.5 357.5,-444.5 357.5,-438.5 357.5,-438.5 357.5,-369.5 357.5,-369.5 357.5,-363.5 363.5,-357.5 369.5,-357.5"/>
<text text-anchor="middle" x="423" y="-435.3" font-family="Times,serif" font-size="14.00">DashboardController</text>
<polyline fill="none" stroke="black" points="357.5,-427.5 488.5,-427.5 "/>
<text text-anchor="start" x="365.5" y="-412.3" font-family="Times,serif" font-size="14.00">index</text>
<polyline fill="none" stroke="black" points="357.5,-404.5 488.5,-404.5 "/>
<polyline fill="none" stroke="black" points="357.5,-380.5 488.5,-380.5 "/>
<text text-anchor="start" x="365.5" y="-365.3" font-family="Times,serif" font-size="14.00">_layout</text>
</g>
<!-- BreakfastsController -->
<g id="node10" class="node"><title>BreakfastsController</title>
<path fill="none" stroke="black" d="M-38.5,-136.5C-38.5,-136.5 66.5,-136.5 66.5,-136.5 72.5,-136.5 78.5,-142.5 78.5,-148.5 78.5,-148.5 78.5,-337.5 78.5,-337.5 78.5,-343.5 72.5,-349.5 66.5,-349.5 66.5,-349.5 -38.5,-349.5 -38.5,-349.5 -44.5,-349.5 -50.5,-343.5 -50.5,-337.5 -50.5,-337.5 -50.5,-148.5 -50.5,-148.5 -50.5,-142.5 -44.5,-136.5 -38.5,-136.5"/>
<text text-anchor="middle" x="14" y="-334.3" font-family="Times,serif" font-size="14.00">BreakfastsController</text>
<polyline fill="none" stroke="black" points="-50.5,-326.5 78.5,-326.5 "/>
<text text-anchor="start" x="-42.5" y="-311.3" font-family="Times,serif" font-size="14.00">create</text>
<text text-anchor="start" x="-42.5" y="-296.3" font-family="Times,serif" font-size="14.00">destroy</text>
<text text-anchor="start" x="-42.5" y="-281.3" font-family="Times,serif" font-size="14.00">edit</text>
<text text-anchor="start" x="-42.5" y="-266.3" font-family="Times,serif" font-size="14.00">index</text>
<text text-anchor="start" x="-42.5" y="-251.3" font-family="Times,serif" font-size="14.00">new</text>
<text text-anchor="start" x="-42.5" y="-236.3" font-family="Times,serif" font-size="14.00">show</text>
<text text-anchor="start" x="-42.5" y="-221.3" font-family="Times,serif" font-size="14.00">update</text>
<polyline fill="none" stroke="black" points="-50.5,-213.5 78.5,-213.5 "/>
<polyline fill="none" stroke="black" points="-50.5,-189.5 78.5,-189.5 "/>
<text text-anchor="start" x="-42.5" y="-174.3" font-family="Times,serif" font-size="14.00">_layout</text>
<text text-anchor="start" x="-42.5" y="-159.3" font-family="Times,serif" font-size="14.00">breakfast_params</text>
<text text-anchor="start" x="-42.5" y="-144.3" font-family="Times,serif" font-size="14.00">set_breakfast</text>
</g>
<!-- UserThreeGroupsController -->
<g id="node11" class="node"><title>UserThreeGroupsController</title>
<path fill="none" stroke="black" d="M351.5,-238.5C351.5,-238.5 496.5,-238.5 496.5,-238.5 502.5,-238.5 508.5,-244.5 508.5,-250.5 508.5,-250.5 508.5,-319.5 508.5,-319.5 508.5,-325.5 502.5,-331.5 496.5,-331.5 496.5,-331.5 351.5,-331.5 351.5,-331.5 345.5,-331.5 339.5,-325.5 339.5,-319.5 339.5,-319.5 339.5,-250.5 339.5,-250.5 339.5,-244.5 345.5,-238.5 351.5,-238.5"/>
<text text-anchor="middle" x="424" y="-316.3" font-family="Times,serif" font-size="14.00">UserThreeGroupsController</text>
<polyline fill="none" stroke="black" points="339.5,-308.5 508.5,-308.5 "/>
<text text-anchor="start" x="347.5" y="-293.3" font-family="Times,serif" font-size="14.00">index</text>
<polyline fill="none" stroke="black" points="339.5,-285.5 508.5,-285.5 "/>
<polyline fill="none" stroke="black" points="339.5,-261.5 508.5,-261.5 "/>
<text text-anchor="start" x="347.5" y="-246.3" font-family="Times,serif" font-size="14.00">_layout</text>
</g>
<!-- CustomerSatisfactionsController -->
<g id="node12" class="node"><title>CustomerSatisfactionsController</title>
<path fill="none" stroke="black" d="M-90,118C-90,118 80,118 80,118 86,118 92,112 92,106 92,106 92,-98 92,-98 92,-104 86,-110 80,-110 80,-110 -90,-110 -90,-110 -96,-110 -102,-104 -102,-98 -102,-98 -102,106 -102,106 -102,112 -96,118 -90,118"/>
<text text-anchor="middle" x="-5" y="-94.8" font-family="Times,serif" font-size="14.00">CustomerSatisfactionsController</text>
<polyline fill="none" stroke="black" points="-102,-87 92,-87 "/>
<text text-anchor="start" x="-94" y="-71.8" font-family="Times,serif" font-size="14.00">charts</text>
<text text-anchor="start" x="-94" y="-56.8" font-family="Times,serif" font-size="14.00">create</text>
<text text-anchor="start" x="-94" y="-41.8" font-family="Times,serif" font-size="14.00">destroy</text>
<text text-anchor="start" x="-94" y="-26.8" font-family="Times,serif" font-size="14.00">edit</text>
<text text-anchor="start" x="-94" y="-11.8" font-family="Times,serif" font-size="14.00">index</text>
<text text-anchor="start" x="-94" y="3.2" font-family="Times,serif" font-size="14.00">new</text>
<text text-anchor="start" x="-94" y="18.2" font-family="Times,serif" font-size="14.00">show</text>
<text text-anchor="start" x="-94" y="33.2" font-family="Times,serif" font-size="14.00">update</text>
<polyline fill="none" stroke="black" points="-102,41 92,41 "/>
<polyline fill="none" stroke="black" points="-102,65 92,65 "/>
<text text-anchor="start" x="-94" y="80.2" font-family="Times,serif" font-size="14.00">_layout</text>
<text text-anchor="start" x="-94" y="95.2" font-family="Times,serif" font-size="14.00">customer_satisfaction_params</text>
<text text-anchor="start" x="-94" y="110.2" font-family="Times,serif" font-size="14.00">set_customer_satisfaction</text>
</g>
<!-- LunchesController -->
<g id="node13" class="node"><title>LunchesController</title>
<path fill="none" stroke="black" d="M-192,-204.5C-192,-204.5 -98,-204.5 -98,-204.5 -92,-204.5 -86,-210.5 -86,-216.5 -86,-216.5 -86,-405.5 -86,-405.5 -86,-411.5 -92,-417.5 -98,-417.5 -98,-417.5 -192,-417.5 -192,-417.5 -198,-417.5 -204,-411.5 -204,-405.5 -204,-405.5 -204,-216.5 -204,-216.5 -204,-210.5 -198,-204.5 -192,-204.5"/>
<text text-anchor="middle" x="-145" y="-402.3" font-family="Times,serif" font-size="14.00">LunchesController</text>
<polyline fill="none" stroke="black" points="-204,-394.5 -86,-394.5 "/>
<text text-anchor="start" x="-196" y="-379.3" font-family="Times,serif" font-size="14.00">create</text>
<text text-anchor="start" x="-196" y="-364.3" font-family="Times,serif" font-size="14.00">destroy</text>
<text text-anchor="start" x="-196" y="-349.3" font-family="Times,serif" font-size="14.00">edit</text>
<text text-anchor="start" x="-196" y="-334.3" font-family="Times,serif" font-size="14.00">index</text>
<text text-anchor="start" x="-196" y="-319.3" font-family="Times,serif" font-size="14.00">new</text>
<text text-anchor="start" x="-196" y="-304.3" font-family="Times,serif" font-size="14.00">show</text>
<text text-anchor="start" x="-196" y="-289.3" font-family="Times,serif" font-size="14.00">update</text>
<polyline fill="none" stroke="black" points="-204,-281.5 -86,-281.5 "/>
<polyline fill="none" stroke="black" points="-204,-257.5 -86,-257.5 "/>
<text text-anchor="start" x="-196" y="-242.3" font-family="Times,serif" font-size="14.00">_layout</text>
<text text-anchor="start" x="-196" y="-227.3" font-family="Times,serif" font-size="14.00">lunch_params</text>
<text text-anchor="start" x="-196" y="-212.3" font-family="Times,serif" font-size="14.00">set_lunch</text>
</g>
<!-- UserTwoGroupsController -->
<g id="node14" class="node"><title>UserTwoGroupsController</title>
<path fill="none" stroke="black" d="M12,356.5C12,356.5 150,356.5 150,356.5 156,356.5 162,350.5 162,344.5 162,344.5 162,275.5 162,275.5 162,269.5 156,263.5 150,263.5 150,263.5 12,263.5 12,263.5 6,263.5 0,269.5 0,275.5 0,275.5 0,344.5 0,344.5 0,350.5 6,356.5 12,356.5"/>
<text text-anchor="middle" x="81" y="278.7" font-family="Times,serif" font-size="14.00">UserTwoGroupsController</text>
<polyline fill="none" stroke="black" points="0,286.5 162,286.5 "/>
<text text-anchor="start" x="8" y="301.7" font-family="Times,serif" font-size="14.00">index</text>
<polyline fill="none" stroke="black" points="0,309.5 162,309.5 "/>
<polyline fill="none" stroke="black" points="0,333.5 162,333.5 "/>
<text text-anchor="start" x="8" y="348.7" font-family="Times,serif" font-size="14.00">_layout</text>
</g>
<!-- SatisfactionsDinnerController -->
<g id="node15" class="node"><title>SatisfactionsDinnerController</title>
<path fill="none" stroke="black" d="M301.5,135.5C301.5,135.5 456.5,135.5 456.5,135.5 462.5,135.5 468.5,129.5 468.5,123.5 468.5,123.5 468.5,54.5 468.5,54.5 468.5,48.5 462.5,42.5 456.5,42.5 456.5,42.5 301.5,42.5 301.5,42.5 295.5,42.5 289.5,48.5 289.5,54.5 289.5,54.5 289.5,123.5 289.5,123.5 289.5,129.5 295.5,135.5 301.5,135.5"/>
<text text-anchor="middle" x="379" y="57.7" font-family="Times,serif" font-size="14.00">SatisfactionsDinnerController</text>
<polyline fill="none" stroke="black" points="289.5,65.5 468.5,65.5 "/>
<text text-anchor="start" x="297.5" y="80.7" font-family="Times,serif" font-size="14.00">index</text>
<polyline fill="none" stroke="black" points="289.5,88.5 468.5,88.5 "/>
<polyline fill="none" stroke="black" points="289.5,112.5 468.5,112.5 "/>
<text text-anchor="start" x="297.5" y="127.7" font-family="Times,serif" font-size="14.00">_layout</text>
</g>
<!-- MenusController -->
<g id="node16" class="node"><title>MenusController</title>
<path fill="none" stroke="black" d="M131,118.5C131,118.5 241,118.5 241,118.5 247,118.5 253,112.5 253,106.5 253,106.5 253,-142.5 253,-142.5 253,-148.5 247,-154.5 241,-154.5 241,-154.5 131,-154.5 131,-154.5 125,-154.5 119,-148.5 119,-142.5 119,-142.5 119,106.5 119,106.5 119,112.5 125,118.5 131,118.5"/>
<text text-anchor="middle" x="186" y="-139.3" font-family="Times,serif" font-size="14.00">MenusController</text>
<polyline fill="none" stroke="black" points="119,-131.5 253,-131.5 "/>
<text text-anchor="start" x="127" y="-116.3" font-family="Times,serif" font-size="14.00">create</text>
<text text-anchor="start" x="127" y="-101.3" font-family="Times,serif" font-size="14.00">destroy</text>
<text text-anchor="start" x="127" y="-86.3" font-family="Times,serif" font-size="14.00">edit</text>
<text text-anchor="start" x="127" y="-71.3" font-family="Times,serif" font-size="14.00">import</text>
<text text-anchor="start" x="127" y="-56.3" font-family="Times,serif" font-size="14.00">index</text>
<text text-anchor="start" x="127" y="-41.3" font-family="Times,serif" font-size="14.00">new</text>
<text text-anchor="start" x="127" y="-26.3" font-family="Times,serif" font-size="14.00">show</text>
<text text-anchor="start" x="127" y="-11.3" font-family="Times,serif" font-size="14.00">update</text>
<polyline fill="none" stroke="black" points="119,-3.5 253,-3.5 "/>
<polyline fill="none" stroke="black" points="119,20.5 253,20.5 "/>
<text text-anchor="start" x="127" y="35.7" font-family="Times,serif" font-size="14.00">_layout</text>
<text text-anchor="start" x="127" y="50.7" font-family="Times,serif" font-size="14.00">load_imported_menu</text>
<text text-anchor="start" x="127" y="65.7" font-family="Times,serif" font-size="14.00">menu_params</text>
<text text-anchor="start" x="127" y="80.7" font-family="Times,serif" font-size="14.00">open_spreadsheet</text>
<text text-anchor="start" x="127" y="95.7" font-family="Times,serif" font-size="14.00">route_to</text>
<text text-anchor="start" x="127" y="110.7" font-family="Times,serif" font-size="14.00">set_menu</text>
</g>
</g>
</svg>
