<?xml version="1.0" encoding="UTF-8" standalone="no"?>
<!DOCTYPE svg PUBLIC "-//W3C//DTD SVG 1.1//EN"
 "http://www.w3.org/Graphics/SVG/1.1/DTD/svg11.dtd">
<!-- Generated by graphviz version 2.38.0 (20140413.2041)
 -->
<!-- Title: models_diagram Pages: 1 -->
<svg width="1343pt" height="453pt"
 viewBox="0.00 0.00 1343.00 453.00" xmlns="http://www.w3.org/2000/svg" xmlns:xlink="http://www.w3.org/1999/xlink">
<g id="graph0" class="graph" transform="scale(1 1) rotate(0) translate(4 449)">
<title>models_diagram</title>
<polygon fill="none" stroke="none" points="-4,4 -4,-449 1339,-449 1339,4 -4,4"/>
<!-- _diagram_info -->
<g id="node1" class="node"><title>_diagram_info</title>
<text text-anchor="start" x="8" y="-386.1" font-family="Times,serif" font-size="13.00">Models diagram</text>
<text text-anchor="start" x="8" y="-372.1" font-family="Times,serif" font-size="13.00">Date: Jul 10 2019 &#45; 16:12</text>
<text text-anchor="start" x="8" y="-358.1" font-family="Times,serif" font-size="13.00">Migration version: 20190530182110</text>
<text text-anchor="start" x="8" y="-344.1" font-family="Times,serif" font-size="13.00">Generated by RailRoady 1.5.3</text>
<text text-anchor="start" x="8" y="-330.1" font-family="Times,serif" font-size="13.00">http://railroady.prestonlee.com</text>
</g>
<!-- User -->
<g id="node2" class="node"><title>User</title>
<path fill="none" stroke="black" d="M244.5,-278.5C244.5,-278.5 533.5,-278.5 533.5,-278.5 539.5,-278.5 545.5,-284.5 545.5,-290.5 545.5,-290.5 545.5,-432.5 545.5,-432.5 545.5,-438.5 539.5,-444.5 533.5,-444.5 533.5,-444.5 244.5,-444.5 244.5,-444.5 238.5,-444.5 232.5,-438.5 232.5,-432.5 232.5,-432.5 232.5,-290.5 232.5,-290.5 232.5,-284.5 238.5,-278.5 244.5,-278.5"/>
<text text-anchor="middle" x="389" y="-429.3" font-family="Times,serif" font-size="14.00">User</text>
<polyline fill="none" stroke="black" points="232.5,-421.5 545.5,-421.5 "/>
<text text-anchor="start" x="240.5" y="-406.3" font-family="Times,serif" font-size="14.00">id :bigint</text>
<text text-anchor="start" x="240.5" y="-391.3" font-family="Times,serif" font-size="14.00">email :character varying</text>
<text text-anchor="start" x="240.5" y="-376.3" font-family="Times,serif" font-size="14.00">encrypted_password :character varying</text>
<text text-anchor="start" x="240.5" y="-361.3" font-family="Times,serif" font-size="14.00">reset_password_token :character varying</text>
<text text-anchor="start" x="240.5" y="-346.3" font-family="Times,serif" font-size="14.00">reset_password_sent_at :timestamp without time zone</text>
<text text-anchor="start" x="240.5" y="-331.3" font-family="Times,serif" font-size="14.00">remember_created_at :timestamp without time zone</text>
<text text-anchor="start" x="240.5" y="-316.3" font-family="Times,serif" font-size="14.00">created_at :timestamp without time zone</text>
<text text-anchor="start" x="240.5" y="-301.3" font-family="Times,serif" font-size="14.00">updated_at :timestamp without time zone</text>
<text text-anchor="start" x="240.5" y="-286.3" font-family="Times,serif" font-size="14.00">name :character varying</text>
</g>
<!-- CustomerSatisfaction -->
<g id="node3" class="node"><title>CustomerSatisfaction</title>
<path fill="none" stroke="black" d="M576,-278.5C576,-278.5 796,-278.5 796,-278.5 802,-278.5 808,-284.5 808,-290.5 808,-290.5 808,-432.5 808,-432.5 808,-438.5 802,-444.5 796,-444.5 796,-444.5 576,-444.5 576,-444.5 570,-444.5 564,-438.5 564,-432.5 564,-432.5 564,-290.5 564,-290.5 564,-284.5 570,-278.5 576,-278.5"/>
<text text-anchor="middle" x="686" y="-429.3" font-family="Times,serif" font-size="14.00">CustomerSatisfaction</text>
<polyline fill="none" stroke="black" points="564,-421.5 808,-421.5 "/>
<text text-anchor="start" x="572" y="-406.3" font-family="Times,serif" font-size="14.00">id :bigint</text>
<text text-anchor="start" x="572" y="-391.3" font-family="Times,serif" font-size="14.00">user_group :integer</text>
<text text-anchor="start" x="572" y="-376.3" font-family="Times,serif" font-size="14.00">meal :character varying</text>
<text text-anchor="start" x="572" y="-361.3" font-family="Times,serif" font-size="14.00">rating :integer</text>
<text text-anchor="start" x="572" y="-346.3" font-family="Times,serif" font-size="14.00">like :text</text>
<text text-anchor="start" x="572" y="-331.3" font-family="Times,serif" font-size="14.00">disgust :text</text>
<text text-anchor="start" x="572" y="-316.3" font-family="Times,serif" font-size="14.00">suggestion :text</text>
<text text-anchor="start" x="572" y="-301.3" font-family="Times,serif" font-size="14.00">created_at :timestamp without time zone</text>
<text text-anchor="start" x="572" y="-286.3" font-family="Times,serif" font-size="14.00">updated_at :timestamp without time zone</text>
</g>
<!-- Lunch -->
<g id="node4" class="node"><title>Lunch</title>
<path fill="none" stroke="black" d="M573,-15.5C573,-15.5 793,-15.5 793,-15.5 799,-15.5 805,-21.5 805,-27.5 805,-27.5 805,-214.5 805,-214.5 805,-220.5 799,-226.5 793,-226.5 793,-226.5 573,-226.5 573,-226.5 567,-226.5 561,-220.5 561,-214.5 561,-214.5 561,-27.5 561,-27.5 561,-21.5 567,-15.5 573,-15.5"/>
<text text-anchor="middle" x="683" y="-211.3" font-family="Times,serif" font-size="14.00">Lunch</text>
<polyline fill="none" stroke="black" points="561,-203.5 805,-203.5 "/>
<text text-anchor="start" x="569" y="-188.3" font-family="Times,serif" font-size="14.00">id :bigint</text>
<text text-anchor="start" x="569" y="-173.3" font-family="Times,serif" font-size="14.00">salad :character varying</text>
<text text-anchor="start" x="569" y="-158.3" font-family="Times,serif" font-size="14.00">sauce :character varying</text>
<text text-anchor="start" x="569" y="-143.3" font-family="Times,serif" font-size="14.00">main_course :character varying</text>
<text text-anchor="start" x="569" y="-128.3" font-family="Times,serif" font-size="14.00">garnish :character varying</text>
<text text-anchor="start" x="569" y="-113.3" font-family="Times,serif" font-size="14.00">vegetarian_dish :character varying</text>
<text text-anchor="start" x="569" y="-98.3" font-family="Times,serif" font-size="14.00">accompaniments :character varying</text>
<text text-anchor="start" x="569" y="-83.3" font-family="Times,serif" font-size="14.00">dessert :character varying</text>
<text text-anchor="start" x="569" y="-68.3" font-family="Times,serif" font-size="14.00">juice :character varying</text>
<text text-anchor="start" x="569" y="-53.3" font-family="Times,serif" font-size="14.00">created_at :timestamp without time zone</text>
<text text-anchor="start" x="569" y="-38.3" font-family="Times,serif" font-size="14.00">updated_at :timestamp without time zone</text>
<text text-anchor="start" x="569" y="-23.3" font-family="Times,serif" font-size="14.00">menu_id :bigint</text>
</g>
<!-- Menu -->
<g id="node5" class="node"><title>Menu</title>
<path fill="none" stroke="black" d="M838,-316C838,-316 1058,-316 1058,-316 1064,-316 1070,-322 1070,-328 1070,-328 1070,-395 1070,-395 1070,-401 1064,-407 1058,-407 1058,-407 838,-407 838,-407 832,-407 826,-401 826,-395 826,-395 826,-328 826,-328 826,-322 832,-316 838,-316"/>
<text text-anchor="middle" x="948" y="-391.8" font-family="Times,serif" font-size="14.00">Menu</text>
<polyline fill="none" stroke="black" points="826,-384 1070,-384 "/>
<text text-anchor="start" x="834" y="-368.8" font-family="Times,serif" font-size="14.00">id :bigint</text>
<text text-anchor="start" x="834" y="-353.8" font-family="Times,serif" font-size="14.00">date :timestamp without time zone</text>
<text text-anchor="start" x="834" y="-338.8" font-family="Times,serif" font-size="14.00">created_at :timestamp without time zone</text>
<text text-anchor="start" x="834" y="-323.8" font-family="Times,serif" font-size="14.00">updated_at :timestamp without time zone</text>
</g>
<!-- Menu&#45;&gt;Lunch -->
<g id="edge2" class="edge"><title>Menu&#45;&gt;Lunch</title>
<path fill="none" stroke="#1d114f" d="M890.935,-310.427C867.074,-289.389 839.109,-264.6 814,-242 810.314,-238.683 806.575,-235.308 802.803,-231.898"/>
<ellipse fill="none" stroke="#1d114f" cx="894.227" cy="-313.328" rx="4.00002" ry="4.00002"/>
<ellipse fill="#1d114f" stroke="#1d114f" cx="799.817" cy="-229.196" rx="4.00002" ry="4.00002"/>
</g>
<!-- Breakfast -->
<g id="node6" class="node"><title>Breakfast</title>
<path fill="none" stroke="black" d="M835,-0.5C835,-0.5 1061,-0.5 1061,-0.5 1067,-0.5 1073,-6.5 1073,-12.5 1073,-12.5 1073,-229.5 1073,-229.5 1073,-235.5 1067,-241.5 1061,-241.5 1061,-241.5 835,-241.5 835,-241.5 829,-241.5 823,-235.5 823,-229.5 823,-229.5 823,-12.5 823,-12.5 823,-6.5 829,-0.5 835,-0.5"/>
<text text-anchor="middle" x="948" y="-226.3" font-family="Times,serif" font-size="14.00">Breakfast</text>
<polyline fill="none" stroke="black" points="823,-218.5 1073,-218.5 "/>
<text text-anchor="start" x="831" y="-203.3" font-family="Times,serif" font-size="14.00">id :bigint</text>
<text text-anchor="start" x="831" y="-188.3" font-family="Times,serif" font-size="14.00">hot_drinks :character varying</text>
<text text-anchor="start" x="831" y="-173.3" font-family="Times,serif" font-size="14.00">vegetarian_drink :character varying</text>
<text text-anchor="start" x="831" y="-158.3" font-family="Times,serif" font-size="14.00">chocolate_milk :character varying</text>
<text text-anchor="start" x="831" y="-143.3" font-family="Times,serif" font-size="14.00">bread :character varying</text>
<text text-anchor="start" x="831" y="-128.3" font-family="Times,serif" font-size="14.00">vegetarian_bread :character varying</text>
<text text-anchor="start" x="831" y="-113.3" font-family="Times,serif" font-size="14.00">margarine :character varying</text>
<text text-anchor="start" x="831" y="-98.3" font-family="Times,serif" font-size="14.00">vegetarian_margarine :character varying</text>
<text text-anchor="start" x="831" y="-83.3" font-family="Times,serif" font-size="14.00">complement :character varying</text>
<text text-anchor="start" x="831" y="-68.3" font-family="Times,serif" font-size="14.00">vegetarian_complement :character varying</text>
<text text-anchor="start" x="831" y="-53.3" font-family="Times,serif" font-size="14.00">created_at :timestamp without time zone</text>
<text text-anchor="start" x="831" y="-38.3" font-family="Times,serif" font-size="14.00">updated_at :timestamp without time zone</text>
<text text-anchor="start" x="831" y="-23.3" font-family="Times,serif" font-size="14.00">menu_id :bigint</text>
<text text-anchor="start" x="831" y="-8.3" font-family="Times,serif" font-size="14.00">fruit :character varying</text>
</g>
<!-- Menu&#45;&gt;Breakfast -->
<g id="edge1" class="edge"><title>Menu&#45;&gt;Breakfast</title>
<path fill="none" stroke="#e7b3c2" d="M948,-307.719C948,-290.359 948,-270.237 948,-249.778"/>
<ellipse fill="none" stroke="#e7b3c2" cx="948" cy="-311.92" rx="4" ry="4"/>
<ellipse fill="#e7b3c2" stroke="#e7b3c2" cx="948" cy="-245.619" rx="4" ry="4"/>
</g>
<!-- Dinner -->
<g id="node7" class="node"><title>Dinner</title>
<path fill="none" stroke="black" d="M1103,-15.5C1103,-15.5 1323,-15.5 1323,-15.5 1329,-15.5 1335,-21.5 1335,-27.5 1335,-27.5 1335,-214.5 1335,-214.5 1335,-220.5 1329,-226.5 1323,-226.5 1323,-226.5 1103,-226.5 1103,-226.5 1097,-226.5 1091,-220.5 1091,-214.5 1091,-214.5 1091,-27.5 1091,-27.5 1091,-21.5 1097,-15.5 1103,-15.5"/>
<text text-anchor="middle" x="1213" y="-211.3" font-family="Times,serif" font-size="14.00">Dinner</text>
<polyline fill="none" stroke="black" points="1091,-203.5 1335,-203.5 "/>
<text text-anchor="start" x="1099" y="-188.3" font-family="Times,serif" font-size="14.00">id :bigint</text>
<text text-anchor="start" x="1099" y="-173.3" font-family="Times,serif" font-size="14.00">salad :character varying</text>
<text text-anchor="start" x="1099" y="-158.3" font-family="Times,serif" font-size="14.00">sauce :character varying</text>
<text text-anchor="start" x="1099" y="-143.3" font-family="Times,serif" font-size="14.00">soup :character varying</text>
<text text-anchor="start" x="1099" y="-128.3" font-family="Times,serif" font-size="14.00">main_course :character varying</text>
<text text-anchor="start" x="1099" y="-113.3" font-family="Times,serif" font-size="14.00">vegetarian_dish :character varying</text>
<text text-anchor="start" x="1099" y="-98.3" font-family="Times,serif" font-size="14.00">accompaniments :character varying</text>
<text text-anchor="start" x="1099" y="-83.3" font-family="Times,serif" font-size="14.00">dessert :character varying</text>
<text text-anchor="start" x="1099" y="-68.3" font-family="Times,serif" font-size="14.00">juice :character varying</text>
<text text-anchor="start" x="1099" y="-53.3" font-family="Times,serif" font-size="14.00">created_at :timestamp without time zone</text>
<text text-anchor="start" x="1099" y="-38.3" font-family="Times,serif" font-size="14.00">updated_at :timestamp without time zone</text>
<text text-anchor="start" x="1099" y="-23.3" font-family="Times,serif" font-size="14.00">menu_id :bigint</text>
</g>
<!-- Menu&#45;&gt;Dinner -->
<g id="edge3" class="edge"><title>Menu&#45;&gt;Dinner</title>
<path fill="none" stroke="#40dfa1" d="M1005.07,-310.427C1028.93,-289.389 1056.89,-264.6 1082,-242 1085.69,-238.683 1089.43,-235.308 1093.2,-231.898"/>
<ellipse fill="none" stroke="#40dfa1" cx="1001.77" cy="-313.328" rx="4.00002" ry="4.00002"/>
<ellipse fill="#40dfa1" stroke="#40dfa1" cx="1096.18" cy="-229.196" rx="4.00002" ry="4.00002"/>
</g>
<!-- ApplicationRecord -->
<g id="node8" class="node"><title>ApplicationRecord</title>
<ellipse fill="none" stroke="black" cx="1165" cy="-361.5" rx="77.1866" ry="18"/>
<text text-anchor="middle" x="1165" y="-357.8" font-family="Times,serif" font-size="14.00">ApplicationRecord</text>
</g>
</g>
</svg>
