<?xml version="1.0" encoding="UTF-8" standalone="no"?>
<!DOCTYPE svg PUBLIC "-//W3C//DTD SVG 1.1//EN"
 "http://www.w3.org/Graphics/SVG/1.1/DTD/svg11.dtd">
<!-- Generated by graphviz version 2.38.0 (20140413.2041)
 -->
<!-- Title: models_diagram Pages: 1 -->
<svg width="740pt" height="158pt"
 viewBox="0.00 0.00 740.34 158.00" xmlns="http://www.w3.org/2000/svg" xmlns:xlink="http://www.w3.org/1999/xlink">
<g id="graph0" class="graph" transform="scale(1 1) rotate(0) translate(4 154)">
<title>models_diagram</title>
<polygon fill="none" stroke="none" points="-4,4 -4,-154 736.343,-154 736.343,4 -4,4"/>
<!-- _diagram_info -->
<g id="node1" class="node"><title>_diagram_info</title>
<text text-anchor="start" x="8" y="-135.6" font-family="Times,serif" font-size="13.00">Models diagram</text>
<text text-anchor="start" x="8" y="-121.6" font-family="Times,serif" font-size="13.00">Date: Jul 10 2019 &#45; 16:12</text>
<text text-anchor="start" x="8" y="-107.6" font-family="Times,serif" font-size="13.00">Migration version: 20190530182110</text>
<text text-anchor="start" x="8" y="-93.6" font-family="Times,serif" font-size="13.00">Generated by RailRoady 1.5.3</text>
<text text-anchor="start" x="8" y="-79.6" font-family="Times,serif" font-size="13.00">http://railroady.prestonlee.com</text>
</g>
<!-- User -->
<g id="node2" class="node"><title>User</title>
<ellipse fill="none" stroke="black" cx="259" cy="-111" rx="27.0966" ry="18"/>
<text text-anchor="middle" x="259" y="-107.3" font-family="Times,serif" font-size="14.00">User</text>
</g>
<!-- CustomerSatisfaction -->
<g id="node3" class="node"><title>CustomerSatisfaction</title>
<ellipse fill="none" stroke="black" cx="391" cy="-111" rx="87.1846" ry="18"/>
<text text-anchor="middle" x="391" y="-107.3" font-family="Times,serif" font-size="14.00">CustomerSatisfaction</text>
</g>
<!-- Lunch -->
<g id="node4" class="node"><title>Lunch</title>
<ellipse fill="none" stroke="black" cx="433" cy="-18" rx="33.2948" ry="18"/>
<text text-anchor="middle" x="433" y="-14.3" font-family="Times,serif" font-size="14.00">Lunch</text>
</g>
<!-- Menu -->
<g id="node5" class="node"><title>Menu</title>
<ellipse fill="none" stroke="black" cx="528" cy="-111" rx="31.6951" ry="18"/>
<text text-anchor="middle" x="528" y="-107.3" font-family="Times,serif" font-size="14.00">Menu</text>
</g>
<!-- Menu&#45;&gt;Lunch -->
<g id="edge2" class="edge"><title>Menu&#45;&gt;Lunch</title>
<path fill="none" stroke="#a2354c" d="M506.178,-89.0969C490.686,-74.2572 469.984,-54.4266 454.553,-39.6452"/>
<ellipse fill="none" stroke="#a2354c" cx="509.424" cy="-92.2062" rx="4.00002" ry="4.00002"/>
<ellipse fill="#a2354c" stroke="#a2354c" cx="451.599" cy="-36.8161" rx="4.00002" ry="4.00002"/>
</g>
<!-- Breakfast -->
<g id="node6" class="node"><title>Breakfast</title>
<ellipse fill="none" stroke="black" cx="528" cy="-18" rx="44.393" ry="18"/>
<text text-anchor="middle" x="528" y="-14.3" font-family="Times,serif" font-size="14.00">Breakfast</text>
</g>
<!-- Menu&#45;&gt;Breakfast -->
<g id="edge1" class="edge"><title>Menu&#45;&gt;Breakfast</title>
<path fill="none" stroke="#ac1a0f" d="M528,-84.7285C528,-72.1184 528,-56.9054 528,-44.2924"/>
<ellipse fill="none" stroke="#ac1a0f" cx="528" cy="-88.8836" rx="4" ry="4"/>
<ellipse fill="#ac1a0f" stroke="#ac1a0f" cx="528" cy="-40.0397" rx="4" ry="4"/>
</g>
<!-- Dinner -->
<g id="node7" class="node"><title>Dinner</title>
<ellipse fill="none" stroke="black" cx="625" cy="-18" rx="35.194" ry="18"/>
<text text-anchor="middle" x="625" y="-14.3" font-family="Times,serif" font-size="14.00">Dinner</text>
</g>
<!-- Menu&#45;&gt;Dinner -->
<g id="edge3" class="edge"><title>Menu&#45;&gt;Dinner</title>
<path fill="none" stroke="#c38201" d="M550.281,-89.0969C566.099,-74.2572 587.238,-54.4266 602.994,-39.6452"/>
<ellipse fill="none" stroke="#c38201" cx="546.935" cy="-92.2364" rx="4.00002" ry="4.00002"/>
<ellipse fill="#c38201" stroke="#c38201" cx="606.041" cy="-36.7859" rx="4.00002" ry="4.00002"/>
</g>
<!-- ApplicationRecord -->
<g id="node8" class="node"><title>ApplicationRecord</title>
<ellipse fill="none" stroke="black" cx="655" cy="-111" rx="77.1866" ry="18"/>
<text text-anchor="middle" x="655" y="-107.3" font-family="Times,serif" font-size="14.00">ApplicationRecord</text>
</g>
</g>
</svg>
