<?xml version="1.0" encoding="UTF-8" standalone="no"?>
<!DOCTYPE svg PUBLIC "-//W3C//DTD SVG 1.1//EN"
 "http://www.w3.org/Graphics/SVG/1.1/DTD/svg11.dtd">
<!-- Generated by graphviz version 2.38.0 (20140413.2041)
 -->
<!-- Title: models_diagram Pages: 1 -->
<svg width="1605pt" height="453pt"
 viewBox="0.00 0.00 1605.00 453.00" xmlns="http://www.w3.org/2000/svg" xmlns:xlink="http://www.w3.org/1999/xlink">
<g id="graph0" class="graph" transform="scale(1 1) rotate(0) translate(4 449)">
<title>models_diagram</title>
<polygon fill="none" stroke="none" points="-4,4 -4,-449 1601,-449 1601,4 -4,4"/>
<!-- _diagram_info -->
<g id="node1" class="node"><title>_diagram_info</title>
<text text-anchor="start" x="8" y="-386.1" font-family="Times,serif" font-size="13.00">Models diagram</text>
<text text-anchor="start" x="8" y="-372.1" font-family="Times,serif" font-size="13.00">Date: Jul 10 2019 &#45; 19:15</text>
<text text-anchor="start" x="8" y="-358.1" font-family="Times,serif" font-size="13.00">Migration version: 20190707121502</text>
<text text-anchor="start" x="8" y="-344.1" font-family="Times,serif" font-size="13.00">Generated by RailRoady 1.5.3</text>
<text text-anchor="start" x="8" y="-330.1" font-family="Times,serif" font-size="13.00">http://railroady.prestonlee.com</text>
</g>
<!-- HoraDeFuncionamento -->
<g id="node2" class="node"><title>HoraDeFuncionamento</title>
<path fill="none" stroke="black" d="M244,-301C244,-301 464,-301 464,-301 470,-301 476,-307 476,-313 476,-313 476,-410 476,-410 476,-416 470,-422 464,-422 464,-422 244,-422 244,-422 238,-422 232,-416 232,-410 232,-410 232,-313 232,-313 232,-307 238,-301 244,-301"/>
<text text-anchor="middle" x="354" y="-406.8" font-family="Times,serif" font-size="14.00">HoraDeFuncionamento</text>
<polyline fill="none" stroke="black" points="232,-399 476,-399 "/>
<text text-anchor="start" x="240" y="-383.8" font-family="Times,serif" font-size="14.00">id :bigint</text>
<text text-anchor="start" x="240" y="-368.8" font-family="Times,serif" font-size="14.00">dia :character varying</text>
<text text-anchor="start" x="240" y="-353.8" font-family="Times,serif" font-size="14.00">inicio :character varying</text>
<text text-anchor="start" x="240" y="-338.8" font-family="Times,serif" font-size="14.00">fechamento :character varying</text>
<text text-anchor="start" x="240" y="-323.8" font-family="Times,serif" font-size="14.00">created_at :timestamp without time zone</text>
<text text-anchor="start" x="240" y="-308.8" font-family="Times,serif" font-size="14.00">updated_at :timestamp without time zone</text>
</g>
<!-- User -->
<g id="node3" class="node"><title>User</title>
<path fill="none" stroke="black" d="M506.5,-278.5C506.5,-278.5 795.5,-278.5 795.5,-278.5 801.5,-278.5 807.5,-284.5 807.5,-290.5 807.5,-290.5 807.5,-432.5 807.5,-432.5 807.5,-438.5 801.5,-444.5 795.5,-444.5 795.5,-444.5 506.5,-444.5 506.5,-444.5 500.5,-444.5 494.5,-438.5 494.5,-432.5 494.5,-432.5 494.5,-290.5 494.5,-290.5 494.5,-284.5 500.5,-278.5 506.5,-278.5"/>
<text text-anchor="middle" x="651" y="-429.3" font-family="Times,serif" font-size="14.00">User</text>
<polyline fill="none" stroke="black" points="494.5,-421.5 807.5,-421.5 "/>
<text text-anchor="start" x="502.5" y="-406.3" font-family="Times,serif" font-size="14.00">id :bigint</text>
<text text-anchor="start" x="502.5" y="-391.3" font-family="Times,serif" font-size="14.00">email :character varying</text>
<text text-anchor="start" x="502.5" y="-376.3" font-family="Times,serif" font-size="14.00">encrypted_password :character varying</text>
<text text-anchor="start" x="502.5" y="-361.3" font-family="Times,serif" font-size="14.00">reset_password_token :character varying</text>
<text text-anchor="start" x="502.5" y="-346.3" font-family="Times,serif" font-size="14.00">reset_password_sent_at :timestamp without time zone</text>
<text text-anchor="start" x="502.5" y="-331.3" font-family="Times,serif" font-size="14.00">remember_created_at :timestamp without time zone</text>
<text text-anchor="start" x="502.5" y="-316.3" font-family="Times,serif" font-size="14.00">created_at :timestamp without time zone</text>
<text text-anchor="start" x="502.5" y="-301.3" font-family="Times,serif" font-size="14.00">updated_at :timestamp without time zone</text>
<text text-anchor="start" x="502.5" y="-286.3" font-family="Times,serif" font-size="14.00">name :character varying</text>
</g>
<!-- CustomerSatisfaction -->
<g id="node4" class="node"><title>CustomerSatisfaction</title>
<path fill="none" stroke="black" d="M838,-278.5C838,-278.5 1058,-278.5 1058,-278.5 1064,-278.5 1070,-284.5 1070,-290.5 1070,-290.5 1070,-432.5 1070,-432.5 1070,-438.5 1064,-444.5 1058,-444.5 1058,-444.5 838,-444.5 838,-444.5 832,-444.5 826,-438.5 826,-432.5 826,-432.5 826,-290.5 826,-290.5 826,-284.5 832,-278.5 838,-278.5"/>
<text text-anchor="middle" x="948" y="-429.3" font-family="Times,serif" font-size="14.00">CustomerSatisfaction</text>
<polyline fill="none" stroke="black" points="826,-421.5 1070,-421.5 "/>
<text text-anchor="start" x="834" y="-406.3" font-family="Times,serif" font-size="14.00">id :bigint</text>
<text text-anchor="start" x="834" y="-391.3" font-family="Times,serif" font-size="14.00">user_group :integer</text>
<text text-anchor="start" x="834" y="-376.3" font-family="Times,serif" font-size="14.00">meal :character varying</text>
<text text-anchor="start" x="834" y="-361.3" font-family="Times,serif" font-size="14.00">rating :integer</text>
<text text-anchor="start" x="834" y="-346.3" font-family="Times,serif" font-size="14.00">like :text</text>
<text text-anchor="start" x="834" y="-331.3" font-family="Times,serif" font-size="14.00">disgust :text</text>
<text text-anchor="start" x="834" y="-316.3" font-family="Times,serif" font-size="14.00">suggestion :text</text>
<text text-anchor="start" x="834" y="-301.3" font-family="Times,serif" font-size="14.00">created_at :timestamp without time zone</text>
<text text-anchor="start" x="834" y="-286.3" font-family="Times,serif" font-size="14.00">updated_at :timestamp without time zone</text>
</g>
<!-- Lunch -->
<g id="node5" class="node"><title>Lunch</title>
<path fill="none" stroke="black" d="M835,-15.5C835,-15.5 1055,-15.5 1055,-15.5 1061,-15.5 1067,-21.5 1067,-27.5 1067,-27.5 1067,-214.5 1067,-214.5 1067,-220.5 1061,-226.5 1055,-226.5 1055,-226.5 835,-226.5 835,-226.5 829,-226.5 823,-220.5 823,-214.5 823,-214.5 823,-27.5 823,-27.5 823,-21.5 829,-15.5 835,-15.5"/>
<text text-anchor="middle" x="945" y="-211.3" font-family="Times,serif" font-size="14.00">Lunch</text>
<polyline fill="none" stroke="black" points="823,-203.5 1067,-203.5 "/>
<text text-anchor="start" x="831" y="-188.3" font-family="Times,serif" font-size="14.00">id :bigint</text>
<text text-anchor="start" x="831" y="-173.3" font-family="Times,serif" font-size="14.00">salad :character varying</text>
<text text-anchor="start" x="831" y="-158.3" font-family="Times,serif" font-size="14.00">sauce :character varying</text>
<text text-anchor="start" x="831" y="-143.3" font-family="Times,serif" font-size="14.00">main_course :character varying</text>
<text text-anchor="start" x="831" y="-128.3" font-family="Times,serif" font-size="14.00">garnish :character varying</text>
<text text-anchor="start" x="831" y="-113.3" font-family="Times,serif" font-size="14.00">vegetarian_dish :character varying</text>
<text text-anchor="start" x="831" y="-98.3" font-family="Times,serif" font-size="14.00">accompaniments :character varying</text>
<text text-anchor="start" x="831" y="-83.3" font-family="Times,serif" font-size="14.00">dessert :character varying</text>
<text text-anchor="start" x="831" y="-68.3" font-family="Times,serif" font-size="14.00">juice :character varying</text>
<text text-anchor="start" x="831" y="-53.3" font-family="Times,serif" font-size="14.00">created_at :timestamp without time zone</text>
<text text-anchor="start" x="831" y="-38.3" font-family="Times,serif" font-size="14.00">updated_at :timestamp without time zone</text>
<text text-anchor="start" x="831" y="-23.3" font-family="Times,serif" font-size="14.00">menu_id :bigint</text>
</g>
<!-- Menu -->
<g id="node6" class="node"><title>Menu</title>
<path fill="none" stroke="black" d="M1100,-316C1100,-316 1320,-316 1320,-316 1326,-316 1332,-322 1332,-328 1332,-328 1332,-395 1332,-395 1332,-401 1326,-407 1320,-407 1320,-407 1100,-407 1100,-407 1094,-407 1088,-401 1088,-395 1088,-395 1088,-328 1088,-328 1088,-322 1094,-316 1100,-316"/>
<text text-anchor="middle" x="1210" y="-391.8" font-family="Times,serif" font-size="14.00">Menu</text>
<polyline fill="none" stroke="black" points="1088,-384 1332,-384 "/>
<text text-anchor="start" x="1096" y="-368.8" font-family="Times,serif" font-size="14.00">id :bigint</text>
<text text-anchor="start" x="1096" y="-353.8" font-family="Times,serif" font-size="14.00">date :timestamp without time zone</text>
<text text-anchor="start" x="1096" y="-338.8" font-family="Times,serif" font-size="14.00">created_at :timestamp without time zone</text>
<text text-anchor="start" x="1096" y="-323.8" font-family="Times,serif" font-size="14.00">updated_at :timestamp without time zone</text>
</g>
<!-- Menu&#45;&gt;Lunch -->
<g id="edge2" class="edge"><title>Menu&#45;&gt;Lunch</title>
<path fill="none" stroke="#196833" d="M1152.93,-310.427C1129.07,-289.389 1101.11,-264.6 1076,-242 1072.31,-238.683 1068.57,-235.308 1064.8,-231.898"/>
<ellipse fill="none" stroke="#196833" cx="1156.23" cy="-313.328" rx="4.00002" ry="4.00002"/>
<ellipse fill="#196833" stroke="#196833" cx="1061.82" cy="-229.196" rx="4.00002" ry="4.00002"/>
</g>
<!-- Breakfast -->
<g id="node7" class="node"><title>Breakfast</title>
<path fill="none" stroke="black" d="M1097,-0.5C1097,-0.5 1323,-0.5 1323,-0.5 1329,-0.5 1335,-6.5 1335,-12.5 1335,-12.5 1335,-229.5 1335,-229.5 1335,-235.5 1329,-241.5 1323,-241.5 1323,-241.5 1097,-241.5 1097,-241.5 1091,-241.5 1085,-235.5 1085,-229.5 1085,-229.5 1085,-12.5 1085,-12.5 1085,-6.5 1091,-0.5 1097,-0.5"/>
<text text-anchor="middle" x="1210" y="-226.3" font-family="Times,serif" font-size="14.00">Breakfast</text>
<polyline fill="none" stroke="black" points="1085,-218.5 1335,-218.5 "/>
<text text-anchor="start" x="1093" y="-203.3" font-family="Times,serif" font-size="14.00">id :bigint</text>
<text text-anchor="start" x="1093" y="-188.3" font-family="Times,serif" font-size="14.00">hot_drinks :character varying</text>
<text text-anchor="start" x="1093" y="-173.3" font-family="Times,serif" font-size="14.00">vegetarian_drink :character varying</text>
<text text-anchor="start" x="1093" y="-158.3" font-family="Times,serif" font-size="14.00">chocolate_milk :character varying</text>
<text text-anchor="start" x="1093" y="-143.3" font-family="Times,serif" font-size="14.00">bread :character varying</text>
<text text-anchor="start" x="1093" y="-128.3" font-family="Times,serif" font-size="14.00">vegetarian_bread :character varying</text>
<text text-anchor="start" x="1093" y="-113.3" font-family="Times,serif" font-size="14.00">margarine :character varying</text>
<text text-anchor="start" x="1093" y="-98.3" font-family="Times,serif" font-size="14.00">vegetarian_margarine :character varying</text>
<text text-anchor="start" x="1093" y="-83.3" font-family="Times,serif" font-size="14.00">complement :character varying</text>
<text text-anchor="start" x="1093" y="-68.3" font-family="Times,serif" font-size="14.00">vegetarian_complement :character varying</text>
<text text-anchor="start" x="1093" y="-53.3" font-family="Times,serif" font-size="14.00">created_at :timestamp without time zone</text>
<text text-anchor="start" x="1093" y="-38.3" font-family="Times,serif" font-size="14.00">updated_at :timestamp without time zone</text>
<text text-anchor="start" x="1093" y="-23.3" font-family="Times,serif" font-size="14.00">menu_id :bigint</text>
<text text-anchor="start" x="1093" y="-8.3" font-family="Times,serif" font-size="14.00">fruit :character varying</text>
</g>
<!-- Menu&#45;&gt;Breakfast -->
<g id="edge1" class="edge"><title>Menu&#45;&gt;Breakfast</title>
<path fill="none" stroke="#73c995" d="M1210,-307.719C1210,-290.359 1210,-270.237 1210,-249.778"/>
<ellipse fill="none" stroke="#73c995" cx="1210" cy="-311.92" rx="4" ry="4"/>
<ellipse fill="#73c995" stroke="#73c995" cx="1210" cy="-245.619" rx="4" ry="4"/>
</g>
<!-- Dinner -->
<g id="node8" class="node"><title>Dinner</title>
<path fill="none" stroke="black" d="M1365,-15.5C1365,-15.5 1585,-15.5 1585,-15.5 1591,-15.5 1597,-21.5 1597,-27.5 1597,-27.5 1597,-214.5 1597,-214.5 1597,-220.5 1591,-226.5 1585,-226.5 1585,-226.5 1365,-226.5 1365,-226.5 1359,-226.5 1353,-220.5 1353,-214.5 1353,-214.5 1353,-27.5 1353,-27.5 1353,-21.5 1359,-15.5 1365,-15.5"/>
<text text-anchor="middle" x="1475" y="-211.3" font-family="Times,serif" font-size="14.00">Dinner</text>
<polyline fill="none" stroke="black" points="1353,-203.5 1597,-203.5 "/>
<text text-anchor="start" x="1361" y="-188.3" font-family="Times,serif" font-size="14.00">id :bigint</text>
<text text-anchor="start" x="1361" y="-173.3" font-family="Times,serif" font-size="14.00">salad :character varying</text>
<text text-anchor="start" x="1361" y="-158.3" font-family="Times,serif" font-size="14.00">sauce :character varying</text>
<text text-anchor="start" x="1361" y="-143.3" font-family="Times,serif" font-size="14.00">soup :character varying</text>
<text text-anchor="start" x="1361" y="-128.3" font-family="Times,serif" font-size="14.00">main_course :character varying</text>
<text text-anchor="start" x="1361" y="-113.3" font-family="Times,serif" font-size="14.00">vegetarian_dish :character varying</text>
<text text-anchor="start" x="1361" y="-98.3" font-family="Times,serif" font-size="14.00">accompaniments :character varying</text>
<text text-anchor="start" x="1361" y="-83.3" font-family="Times,serif" font-size="14.00">dessert :character varying</text>
<text text-anchor="start" x="1361" y="-68.3" font-family="Times,serif" font-size="14.00">juice :character varying</text>
<text text-anchor="start" x="1361" y="-53.3" font-family="Times,serif" font-size="14.00">created_at :timestamp without time zone</text>
<text text-anchor="start" x="1361" y="-38.3" font-family="Times,serif" font-size="14.00">updated_at :timestamp without time zone</text>
<text text-anchor="start" x="1361" y="-23.3" font-family="Times,serif" font-size="14.00">menu_id :bigint</text>
</g>
<!-- Menu&#45;&gt;Dinner -->
<g id="edge3" class="edge"><title>Menu&#45;&gt;Dinner</title>
<path fill="none" stroke="#61e996" d="M1267.07,-310.427C1290.93,-289.389 1318.89,-264.6 1344,-242 1347.69,-238.683 1351.43,-235.308 1355.2,-231.898"/>
<ellipse fill="none" stroke="#61e996" cx="1263.77" cy="-313.328" rx="4.00002" ry="4.00002"/>
<ellipse fill="#61e996" stroke="#61e996" cx="1358.18" cy="-229.196" rx="4.00002" ry="4.00002"/>
</g>
<!-- ApplicationRecord -->
<g id="node9" class="node"><title>ApplicationRecord</title>
<ellipse fill="none" stroke="black" cx="1427" cy="-361.5" rx="77.1866" ry="18"/>
<text text-anchor="middle" x="1427" y="-357.8" font-family="Times,serif" font-size="14.00">ApplicationRecord</text>
</g>
</g>
</svg>
