<?xml version="1.0" encoding="UTF-8" standalone="no"?>
<!DOCTYPE svg PUBLIC "-//W3C//DTD SVG 1.1//EN"
 "http://www.w3.org/Graphics/SVG/1.1/DTD/svg11.dtd">
<!-- Generated by graphviz version 2.38.0 (20140413.2041)
 -->
<!-- Title: models_diagram Pages: 1 -->
<svg width="946pt" height="158pt"
 viewBox="0.00 0.00 946.34 158.00" xmlns="http://www.w3.org/2000/svg" xmlns:xlink="http://www.w3.org/1999/xlink">
<g id="graph0" class="graph" transform="scale(1 1) rotate(0) translate(4 154)">
<title>models_diagram</title>
<polygon fill="none" stroke="none" points="-4,4 -4,-154 942.343,-154 942.343,4 -4,4"/>
<!-- _diagram_info -->
<g id="node1" class="node"><title>_diagram_info</title>
<text text-anchor="start" x="8" y="-135.6" font-family="Times,serif" font-size="13.00">Models diagram</text>
<text text-anchor="start" x="8" y="-121.6" font-family="Times,serif" font-size="13.00">Date: Jul 10 2019 &#45; 19:15</text>
<text text-anchor="start" x="8" y="-107.6" font-family="Times,serif" font-size="13.00">Migration version: 20190707121502</text>
<text text-anchor="start" x="8" y="-93.6" font-family="Times,serif" font-size="13.00">Generated by RailRoady 1.5.3</text>
<text text-anchor="start" x="8" y="-79.6" font-family="Times,serif" font-size="13.00">http://railroady.prestonlee.com</text>
</g>
<!-- HoraDeFuncionamento -->
<g id="node2" class="node"><title>HoraDeFuncionamento</title>
<ellipse fill="none" stroke="black" cx="326" cy="-111" rx="93.6835" ry="18"/>
<text text-anchor="middle" x="326" y="-107.3" font-family="Times,serif" font-size="14.00">HoraDeFuncionamento</text>
</g>
<!-- User -->
<g id="node3" class="node"><title>User</title>
<ellipse fill="none" stroke="black" cx="465" cy="-111" rx="27.0966" ry="18"/>
<text text-anchor="middle" x="465" y="-107.3" font-family="Times,serif" font-size="14.00">User</text>
</g>
<!-- CustomerSatisfaction -->
<g id="node4" class="node"><title>CustomerSatisfaction</title>
<ellipse fill="none" stroke="black" cx="597" cy="-111" rx="87.1846" ry="18"/>
<text text-anchor="middle" x="597" y="-107.3" font-family="Times,serif" font-size="14.00">CustomerSatisfaction</text>
</g>
<!-- Lunch -->
<g id="node5" class="node"><title>Lunch</title>
<ellipse fill="none" stroke="black" cx="639" cy="-18" rx="33.2948" ry="18"/>
<text text-anchor="middle" x="639" y="-14.3" font-family="Times,serif" font-size="14.00">Lunch</text>
</g>
<!-- Menu -->
<g id="node6" class="node"><title>Menu</title>
<ellipse fill="none" stroke="black" cx="734" cy="-111" rx="31.6951" ry="18"/>
<text text-anchor="middle" x="734" y="-107.3" font-family="Times,serif" font-size="14.00">Menu</text>
</g>
<!-- Menu&#45;&gt;Lunch -->
<g id="edge2" class="edge"><title>Menu&#45;&gt;Lunch</title>
<path fill="none" stroke="#6f7e11" d="M712.178,-89.0969C696.686,-74.2572 675.984,-54.4266 660.553,-39.6452"/>
<ellipse fill="none" stroke="#6f7e11" cx="715.424" cy="-92.2062" rx="4.00002" ry="4.00002"/>
<ellipse fill="#6f7e11" stroke="#6f7e11" cx="657.599" cy="-36.8161" rx="4.00002" ry="4.00002"/>
</g>
<!-- Breakfast -->
<g id="node7" class="node"><title>Breakfast</title>
<ellipse fill="none" stroke="black" cx="734" cy="-18" rx="44.393" ry="18"/>
<text text-anchor="middle" x="734" y="-14.3" font-family="Times,serif" font-size="14.00">Breakfast</text>
</g>
<!-- Menu&#45;&gt;Breakfast -->
<g id="edge1" class="edge"><title>Menu&#45;&gt;Breakfast</title>
<path fill="none" stroke="#3c71c4" d="M734,-84.7285C734,-72.1184 734,-56.9054 734,-44.2924"/>
<ellipse fill="none" stroke="#3c71c4" cx="734" cy="-88.8836" rx="4" ry="4"/>
<ellipse fill="#3c71c4" stroke="#3c71c4" cx="734" cy="-40.0397" rx="4" ry="4"/>
</g>
<!-- Dinner -->
<g id="node8" class="node"><title>Dinner</title>
<ellipse fill="none" stroke="black" cx="831" cy="-18" rx="35.194" ry="18"/>
<text text-anchor="middle" x="831" y="-14.3" font-family="Times,serif" font-size="14.00">Dinner</text>
</g>
<!-- Menu&#45;&gt;Dinner -->
<g id="edge3" class="edge"><title>Menu&#45;&gt;Dinner</title>
<path fill="none" stroke="#b0afc9" d="M756.281,-89.0969C772.099,-74.2572 793.238,-54.4266 808.994,-39.6452"/>
<ellipse fill="none" stroke="#b0afc9" cx="752.935" cy="-92.2364" rx="4.00002" ry="4.00002"/>
<ellipse fill="#b0afc9" stroke="#b0afc9" cx="812.041" cy="-36.7859" rx="4.00002" ry="4.00002"/>
</g>
<!-- ApplicationRecord -->
<g id="node9" class="node"><title>ApplicationRecord</title>
<ellipse fill="none" stroke="black" cx="861" cy="-111" rx="77.1866" ry="18"/>
<text text-anchor="middle" x="861" y="-107.3" font-family="Times,serif" font-size="14.00">ApplicationRecord</text>
</g>
</g>
</svg>
